<svg width="480" height="577" xmlns="http://www.w3.org/2000/svg" xmlns:xlink="http://www.w3.org/1999/xlink" overflow="hidden"><defs><clipPath id="clip0"><path d="M258 124 738 124 738 701 258 701Z" fill-rule="evenodd" clip-rule="evenodd"/></clipPath></defs><g clip-path="url(#clip0)" transform="translate(-258 -124)"><path d="M260.5 140.834C260.5 132.365 267.365 125.5 275.834 125.5L722.167 125.5C730.635 125.5 737.5 132.365 737.5 140.834L737.5 202.167C737.5 210.635 730.635 217.5 722.167 217.5L275.834 217.5C267.365 217.5 260.5 210.635 260.5 202.167Z" stroke="#595959" stroke-width="1.33333" stroke-miterlimit="8" fill="none" fill-rule="evenodd"/><text fill="#4472C4" font-family="DengXian,DengXian_MSFontService,sans-serif" font-weight="400" font-size="24" transform="translate(317.562 179)">由阻带衰减<tspan font-family="Cambria Math,Cambria Math_MSFontService,sans-serif" x="120" y="0">A</tspan><tspan font-family="Cambria Math,Cambria Math_MSFontService,sans-serif" font-size="18" x="135.467" y="5">𝑠</tspan><tspan x="145.32" y="0">查表确定窗函数类型</tspan></text><path d="M320.5 307.834C320.5 299.365 327.365 292.5 335.834 292.5L661.166 292.5C669.635 292.5 676.5 299.365 676.5 307.834L676.5 369.166C676.5 377.635 669.635 384.5 661.166 384.5L335.834 384.5C327.365 384.5 320.5 377.635 320.5 369.166Z" stroke="#595959" stroke-width="1.33333" stroke-miterlimit="8" fill="none" fill-rule="evenodd"/><text fill="#4472C4" font-family="DengXian,DengXian_MSFontService,sans-serif" font-weight="400" font-size="24" transform="translate(373.306 346)">由<tspan font-family="Cambria Math,Cambria Math_MSFontService,sans-serif" x="24" y="0">𝑤</tspan><tspan font-family="Cambria Math,Cambria Math_MSFontService,sans-serif" font-size="18" x="40.14" y="5">𝑝</tspan><tspan font-family="Cambria Math,Cambria Math_MSFontService,sans-serif" x="52.3466" y="0">,</tspan><tspan font-family="Cambria Math,Cambria Math_MSFontService,sans-serif" x="61.3466" y="0">w</tspan><tspan font-family="Cambria Math,Cambria Math_MSFontService,sans-serif" font-size="18" x="80.0133" y="5">𝑠𝑡</tspan><tspan x="97.64" y="0">求过渡带宽</tspan><tspan font-family="Cambria Math,Cambria Math_MSFontService,sans-serif" x="217.64" y="0">Δ</tspan><tspan font-family="Cambria Math,Cambria Math_MSFontService,sans-serif" x="231.973" y="0">𝜔</tspan></text><path d="M260.5 475.667C260.5 467.291 267.291 460.5 275.667 460.5L722.333 460.5C730.709 460.5 737.5 467.291 737.5 475.667L737.5 536.333C737.5 544.71 730.709 551.5 722.333 551.5L275.667 551.5C267.291 551.5 260.5 544.71 260.5 536.333Z" stroke="#595959" stroke-width="1.33333" stroke-miterlimit="8" fill="none" fill-rule="evenodd"/><text fill="#4472C4" font-family="DengXian,DengXian_MSFontService,sans-serif" font-weight="400" font-size="24" transform="translate(378.659 499)">由<tspan font-family="Cambria Math,Cambria Math_MSFontService,sans-serif" x="24" y="0">Δ</tspan><tspan font-family="Cambria Math,Cambria Math_MSFontService,sans-serif" x="38.3333" y="0">𝜔</tspan><tspan font-family="Cambria Math,Cambria Math_MSFontService,sans-serif" x="62.86" y="0">=</tspan><tspan font-family="Cambria Math,Cambria Math_MSFontService,sans-serif" x="87.5267" y="0">𝑐𝜋</tspan><tspan font-family="Cambria Math,Cambria Math_MSFontService,sans-serif" x="113.207" y="0">/</tspan><tspan font-family="Cambria Math,Cambria Math_MSFontService,sans-serif" x="125.04" y="0">𝑁</tspan><tspan x="143.127" y="0">确定窗长</tspan><tspan font-family="Cambria Math,Cambria Math_MSFontService,sans-serif" x="29.68" y="29">𝑐</tspan><tspan x="41.44" y="29">由窗口类型决定</tspan></text><path d="M260.5 623.834C260.5 615.365 267.365 608.5 275.834 608.5L722.167 608.5C730.635 608.5 737.5 615.365 737.5 623.834L737.5 685.167C737.5 693.635 730.635 700.5 722.167 700.5L275.834 700.5C267.365 700.5 260.5 693.635 260.5 685.167Z" stroke="#595959" stroke-width="1.33333" stroke-miterlimit="8" fill="none" fill-rule="evenodd"/><text fill="#4472C4" font-family="DengXian,DengXian_MSFontService,sans-serif" font-weight="400" font-size="24" transform="translate(321.806 661)">得到窗口类型及窗长，继续设计<tspan x="336" y="0">…</tspan></text><path d="M498.833 217.5 498.833 286.389 498.167 286.389 498.167 217.5ZM502.5 285.056 498.5 293.056 494.5 285.056Z" fill="#4472C4"/><path d="M498.833 384.5 498.833 453.389 498.167 453.389 498.167 384.5ZM502.5 452.056 498.5 460.056 494.5 452.056Z" fill="#4472C4"/><path d="M498.833 551.5 498.833 601.722 498.167 601.722 498.167 551.5ZM502.5 600.389 498.5 608.389 494.5 600.389Z" fill="#4472C4"/></g></svg>